<svg xmlns="http://www.w3.org/2000/svg" version="1.1" xmlns:xlink="http://www.w3.org/1999/xlink" viewBox="0 0 9.453597334490604 3.3033332482534488"><g transform="matrix(0.7565328600466689,0,0,0.7565328600466689,3.5397355386298353,1.2476780768618032)"><rect width="10.516674883052609" height="10.516674883052609" x="-3.689254072771854" y="-4.724337441526305" fill="#ffffff"></rect><g transform="matrix(1,0,0,1,0,0)" clip-path="url(#SvgjsClipPath3373)"><g clip-path="url(#SvgjsClipPath3368e4477deb-1091-4389-a11b-92d7026c691d)"><path d=" M -0.6438626229146609 0.29107495102666314 C -0.6400309031033744 0.3351038064832229 -0.6332296004383415 0.36509898813094743 -0.6223858333724017 0.3907355884933338 C -0.5967612071344255 0.4513102890600038 -0.5485342236596256 0.4875511740001248 -0.46354907307018056 0.6271646749740996 C -0.394441611448753 0.7406793743834519 -0.3639028045528021 0.7336864857278547 -0.46508176099469534 0.7949029993629153 C -0.5476337695039732 0.8300662131061118 -0.5720322454023377 0.813747876359797 -0.5733015025898265 0.8962639624958444 C -0.5710407879011674 0.9306344892030811 -0.5480337052592761 0.9678692264692543 -0.5457610164462068 1.0022277790520808 C -0.5425423718047266 1.0510822066459793 -0.6081414149739457 1.056413086833431 -0.6096501546496396 1.0795590693184816 C -0.6119324227622367 1.1143678489791342 -0.5197340596280458 1.1064242148453616 -0.5771787240738715 1.1550607133749933 C -0.6039289180064129 1.1777085722845766 -0.5921559588862362 1.2538903466075915 -0.5923858620749134 1.3156193527674114 C -0.592905539074319 1.4541767359684008 -0.7151302165797011 1.3901582772213372 -0.8442998862430395 1.3923830695367652 C -0.8863817490704897 1.3931015170013812 -0.9256041909887678 1.3956328469017123 -0.9621564031635554 1.3997519456988448 C -1.170865391634548 1.4233002587640802 -1.356279918477803 1.5147562261848346 -1.511328065816615 1.6541278498457221 C -1.4796780601753914 1.490321827913239 -1.356018882565659 1.3523799147069377 -1.231032971971269 1.211396573900428 C -1.2115271233069402 1.1894001073587637 -1.195242314108974 1.164822019594245 -1.1743762049116389 1.1449377885985519 C -0.6815787199821268 0.6752886809789718 -0.6196940502049735 -0.5176789650668591 -1.814618268179442 -0.2667276605013186 C -1.4020162840752672 -0.4708792972217628 -0.7018317540096564 -0.3760466267173126 -0.6438626229146609 0.29107495102666314 Z" fill="#3361e1" transform="matrix(1,0,0,1,0,0)" fill-rule="evenodd"></path></g><g clip-path="url(#SvgjsClipPath3368e4477deb-1091-4389-a11b-92d7026c691d)"><path d=" M -1.705991406354362 -0.08121494583789957 L -1.5736509885471843 0.147991348798592 L -1.441317755214653 0.37719524861020126 L -1.7059794322299515 0.37719524861020126 L -1.9706482937198966 0.37719524861020126 L -1.838312665562483 0.147991348798592 L -1.7059794322299515 -0.08121494583789968 Z M -1.1784689606350691 0.43507816600944293 L -1.0841823102037271 0.2717750573021912 L -0.9899052390719134 0.10847194859493947 L -1.1784689606350693 0.10847194859493947 L -1.3670374718479892 0.10847194859493947 L -1.2727580058912933 0.2717750573021912 L -1.1784689606350693 0.43507816600944293 Z M -2.148631678954138 0.5143971609279483 L -2.090755946029543 0.41415218619005656 L -2.0328754234551836 0.3139143959268107 L -2.148631678954138 0.3139143959268107 L -2.2643807499784465 0.3139143959268107 L -2.2065098067036155 0.41415218619005656 L -2.148631678954138 0.5143971609279483 Z M -1.8853446314211384 -0.5861278498457221 L -1.827466503671661 -0.4858828751078301 L -1.7695883759221838 -0.3856379003699382 L -2.001098492095211 -0.3856379003699382 L -1.9432203643457338 -0.4858828751078301 L -1.8853446314211384 -0.5861278498457221 Z M -2.3837076893765436 -0.3772416443334574 L -2.3258343512768302 -0.2769966695955655 L -2.267956223527353 -0.1767516948576736 L -2.4994759189999085 -0.1767516948576736 L -2.441597791250431 -0.2769966695955655 L -2.383717268676072 -0.37724164433345747 Z M -1.9012247152140376 0.5704863544905314 L -1.843348982289442 0.6707337240533053 L -1.7854708545399647 0.7709786987911973 L -2.016980970712992 0.7709786987911973 L -1.959110027438161 0.6707337240533053 L -1.9012342945135656 0.5704863544905312 Z M -1.1349406235788584 -0.1337933261233918 L -1.0806523383275797 -0.039760527129547585 L -1.026368842726065 0.054265087389650524 L -1.2435195889062978 0.054265087389650524 L -1.1892313036550193 -0.039760527129547585 L -1.1349406235788586 -0.1337933261233918 Z M -1.450662361904427 -0.17642120902395025 L -1.5049458575059416 -0.08239080485498806 L -1.5592413272318664 0.011637204489092223 L -1.3420905810516341 0.011637204489092223 L -1.3963740766531487 -0.08239080485498806 L -1.450662361904427 -0.17642120902395014 Z M -2.430734865585435 0.531192067825792 L -2.528443720773232 0.3619306348119903 L -2.6261765242098494 0.19266920179818847 L -2.430734865585435 0.19266920179818847 L -2.235290812136139 0.19266920179818847 L -2.33301643109811 0.36192584516222603 L -2.430725286285907 0.5311872781760278 Z M -2.0885383381887612 -0.3386226982854571 L -2.186247193376558 -0.16936605492141954 L -2.2839704175136473 -0.00011420120714611404 L -1.8930871002648184 -0.00011420120714611404 L -1.9907959554526156 -0.1693756342209478 L -2.0885383381887612 -0.3386226982854571 Z M -1.3362759462380072 0.3830769385205256 L -1.2385503272760359 0.5523335818845632 L -1.1408414720882392 0.7215926200734826 L -1.3362855255375354 0.7215926200734826 L -1.5317247893370678 0.7215926200734826 L -1.4340159341492706 0.5523335818845632 L -1.3362951048370635 0.3830769385205254 Z M -1.609403329211366 0.6705493225373871 L -1.5515275962867707 0.5703019529746132 L -1.4936638374865858 0.4700593730616034 L -1.7251524002356748 0.4700593730616034 L -1.6672886414354897 0.5703019529746132 Z" fill="#3361e1" transform="matrix(1,0,0,1,0,0)" fill-rule="evenodd"></path></g></g><g><path d=" M 0.0555 0.8025 Q 0.0585 0.867 0.08925 0.9195000000000001 Q 0.12 0.9720000000000001 0.17325000000000002 1.00875 Q 0.2265 1.0455 0.2985 1.06575 Q 0.3705 1.086 0.456 1.086 Q 0.543 1.086 0.61275 1.0650000000000002 Q 0.6825 1.044 0.732 1.0050000000000001 Q 0.7815 0.9660000000000001 0.8085 0.9105000000000001 Q 0.8355 0.8550000000000001 0.8355 0.7875000000000001 Q 0.8355 0.6945000000000001 0.789 0.6352500000000001 Q 0.7425 0.5760000000000001 0.67275 0.53625 Q 0.603 0.49650000000000005 0.52125 0.46950000000000003 Q 0.4395 0.4425 0.36975 0.4125000000000001 Q 0.3 0.38250000000000006 0.2535 0.3435 Q 0.20700000000000002 0.3045 0.20700000000000002 0.24 Q 0.20700000000000002 0.20400000000000007 0.22275 0.1725 Q 0.23850000000000002 0.14100000000000001 0.26925 0.11775000000000002 Q 0.3 0.09450000000000003 0.34500000000000003 0.08025000000000004 Q 0.39 0.06600000000000006 0.4485 0.06600000000000006 Q 0.546 0.06600000000000006 0.61425 0.10725000000000007 Q 0.6825 0.14850000000000008 0.6945 0.237 L 0.7965 0.237 Q 0.7875 0.1815 0.756 0.1372500000000001 Q 0.7245 0.09300000000000008 0.6765 0.06225000000000014 Q 0.6285000000000001 0.031500000000000083 0.56775 0.01574999999999993 Q 0.507 0 0.441 0 Q 0.372 0 0.30975 0.018000000000000016 Q 0.2475 0.03600000000000003 0.20025 0.07050000000000001 Q 0.153 0.1050000000000001 0.12525 0.15750000000000008 Q 0.0975 0.21000000000000008 0.0975 0.2775000000000001 Q 0.0975 0.366 0.14250000000000002 0.42000000000000004 Q 0.1875 0.4740000000000001 0.25575000000000003 0.51 Q 0.324 0.546 0.4035 0.5715000000000001 Q 0.483 0.597 0.55125 0.6292500000000001 Q 0.6195 0.6615 0.6645 0.7080000000000001 Q 0.7095 0.7545000000000001 0.7095 0.8325 Q 0.7095 0.93 0.63825 0.9750000000000001 Q 0.5670000000000001 1.02 0.4485 1.02 Q 0.354 1.02 0.297 0.9952500000000001 Q 0.24 0.9705 0.21 0.936 Q 0.18 0.9015000000000001 0.1695 0.86475 Q 0.159 0.8280000000000001 0.1575 0.8025 L 0.0555 0.8025 M 1.1055 0.31800000000000006 L 1.1055 1.068 L 1.233 1.068 L 1.233 0.31800000000000006 L 1.1055 0.31800000000000006 M 1.0875 0.08100000000000007 Q 1.0875 0.11399999999999999 1.1115 0.138 Q 1.1355 0.16200000000000003 1.1685 0.16200000000000003 Q 1.2015 0.16200000000000003 1.2255 0.138 Q 1.2495 0.11399999999999999 1.2495 0.08100000000000007 Q 1.2495 0.04800000000000004 1.2255 0.02400000000000002 Q 1.2015 0 1.1685 0 Q 1.1355 0 1.1115 0.02400000000000002 Q 1.0875 0.04800000000000004 1.0875 0.08100000000000007 M 1.67697509765625 0.018000000000000016 L 1.54947509765625 0.018000000000000016 L 1.54947509765625 1.068 L 1.67697509765625 1.068 L 1.67697509765625 0.018000000000000016 M 2.612934814453125 0.726 L 2.612934814453125 0.6945000000000001 Q 2.612934814453125 0.5940000000000001 2.5844348144531253 0.5205000000000001 Q 2.555934814453125 0.44700000000000006 2.507184814453125 0.399 Q 2.458434814453125 0.3510000000000001 2.393934814453125 0.32700000000000007 Q 2.329434814453125 0.30300000000000005 2.257434814453125 0.30300000000000005 Q 2.180934814453125 0.30300000000000005 2.116434814453125 0.32925000000000004 Q 2.051934814453125 0.35550000000000004 2.003934814453125 0.40575000000000006 Q 1.955934814453125 0.45600000000000007 1.928934814453125 0.52725 Q 1.901934814453125 0.5985 1.901934814453125 0.6885000000000001 Q 1.901934814453125 0.7635000000000001 1.925184814453125 0.8347500000000001 Q 1.948434814453125 0.906 1.995684814453125 0.96225 Q 2.042934814453125 1.0185 2.115684814453125 1.0522500000000001 Q 2.188434814453125 1.086 2.287434814453125 1.086 Q 2.3834348144531248 1.086 2.464434814453125 1.0522500000000001 Q 2.545434814453125 1.0185 2.605434814453125 0.9555 L 2.557434814453125 0.9075000000000001 Q 2.525934814453125 0.9345000000000001 2.498184814453125 0.9570000000000001 Q 2.470434814453125 0.9795 2.441934814453125 0.9945 Q 2.413434814453125 1.0095 2.3826848144531247 1.0177500000000002 Q 2.351934814453125 1.026 2.314434814453125 1.026 Q 2.272434814453125 1.026 2.225184814453125 1.01325 Q 2.177934814453125 1.0005000000000002 2.137434814453125 0.9675 Q 2.096934814453125 0.9345000000000001 2.069934814453125 0.8760000000000001 Q 2.042934814453125 0.8175000000000001 2.042934814453125 0.726 L 2.612934814453125 0.726 M 2.042934814453125 0.666 Q 2.042934814453125 0.6060000000000001 2.055684814453125 0.5497500000000001 Q 2.068434814453125 0.49350000000000005 2.094684814453125 0.45000000000000007 Q 2.120934814453125 0.4065000000000001 2.1614348144531252 0.3802500000000001 Q 2.201934814453125 0.3540000000000001 2.257434814453125 0.3540000000000001 Q 2.363934814453125 0.3540000000000001 2.423184814453125 0.43725 Q 2.482434814453125 0.5205000000000001 2.482434814453125 0.666 L 2.042934814453125 0.666 M 3.434896728515625 1.068 L 3.434896728515625 0.5820000000000001 Q 3.434896728515625 0.555 3.430396728515625 0.50775 Q 3.425896728515625 0.4605 3.401146728515625 0.41475000000000006 Q 3.376396728515625 0.369 3.322396728515625 0.33525000000000005 Q 3.268396728515625 0.3015 3.169396728515625 0.3015 Q 3.125896728515625 0.30000000000000004 3.071896728515625 0.3187500000000001 Q 3.017896728515625 0.3375 2.965396728515625 0.39 L 2.941396728515625 0.41400000000000003 L 2.935396728515625 0.41400000000000003 L 2.935396728515625 0.31800000000000006 L 2.807896728515625 0.31800000000000006 L 2.807896728515625 1.068 L 2.935396728515625 1.068 L 2.935396728515625 0.6045 Q 2.935396728515625 0.546 2.9518967285156252 0.504 Q 2.968396728515625 0.4620000000000001 2.996896728515625 0.4335 Q 3.025396728515625 0.405 3.062146728515625 0.39150000000000007 Q 3.098896728515625 0.378 3.137896728515625 0.378 Q 3.200896728515625 0.378 3.235396728515625 0.40275000000000005 Q 3.269896728515625 0.4275000000000001 3.285646728515625 0.4605 Q 3.301396728515625 0.49350000000000005 3.3043967285156253 0.5265000000000001 Q 3.307396728515625 0.5595 3.307396728515625 0.5745 L 3.307396728515625 1.068 L 3.434896728515625 1.068 M 4.05588720703125 1.008 Q 4.00188720703125 1.008 3.9516372070312498 0.9915 Q 3.90138720703125 0.9750000000000001 3.86238720703125 0.93825 Q 3.8233872070312502 0.9015000000000001 3.80013720703125 0.8407500000000001 Q 3.77688720703125 0.78 3.77688720703125 0.6915 Q 3.77688720703125 0.6000000000000001 3.80238720703125 0.53625 Q 3.82788720703125 0.47250000000000003 3.86613720703125 0.43425 Q 3.90438720703125 0.396 3.95088720703125 0.37875000000000003 Q 3.99738720703125 0.36150000000000004 4.03938720703125 0.36150000000000004 Q 4.10838720703125 0.36150000000000004 4.15938720703125 0.3975000000000001 Q 4.21038720703125 0.4335 4.22688720703125 0.4860000000000001 L 4.33038720703125 0.4860000000000001 Q 4.31538720703125 0.43200000000000005 4.28238720703125 0.39675000000000005 Q 4.24938720703125 0.36150000000000004 4.20663720703125 0.33975 Q 4.16388720703125 0.31800000000000006 4.11513720703125 0.3097500000000001 Q 4.06638720703125 0.3015 4.02138720703125 0.3015 Q 3.92688720703125 0.3015 3.85488720703125 0.33225000000000005 Q 3.78288720703125 0.3630000000000001 3.73338720703125 0.4155000000000001 Q 3.68388720703125 0.4680000000000001 3.6591372070312502 0.5385000000000001 Q 3.63438720703125 0.609 3.63438720703125 0.6885000000000001 Q 3.63438720703125 0.7725000000000001 3.66138720703125 0.8452500000000001 Q 3.68838720703125 0.918 3.73863720703125 0.9712500000000001 Q 3.78888720703125 1.0245 3.85938720703125 1.05525 Q 3.92988720703125 1.086 4.01838720703125 1.086 Q 4.11738720703125 1.086 4.19163720703125 1.0530000000000002 Q 4.26588720703125 1.02 4.31688720703125 0.9810000000000001 L 4.27338720703125 0.924 Q 4.22088720703125 0.9675 4.16913720703125 0.98775 Q 4.11738720703125 1.008 4.05588720703125 1.008 M 4.543396728515625 0.31800000000000006 L 4.543396728515625 1.068 L 4.670896728515625 1.068 L 4.670896728515625 0.31800000000000006 L 4.543396728515625 0.31800000000000006 M 4.525396728515625 0.08100000000000007 Q 4.525396728515625 0.11399999999999999 4.549396728515625 0.138 Q 4.573396728515625 0.16200000000000003 4.606396728515625 0.16200000000000003 Q 4.639396728515625 0.16200000000000003 4.663396728515625 0.138 Q 4.687396728515625 0.11399999999999999 4.687396728515625 0.08100000000000007 Q 4.687396728515625 0.04800000000000004 4.663396728515625 0.02400000000000002 Q 4.639396728515625 0 4.606396728515625 0 Q 4.573396728515625 0 4.549396728515625 0.02400000000000002 Q 4.525396728515625 0.04800000000000004 4.525396728515625 0.08100000000000007 M 5.689371826171875 0.6945000000000001 Q 5.689371826171875 0.7725000000000001 5.662371826171875 0.84375 Q 5.635371826171875 0.915 5.585121826171875 0.9690000000000001 Q 5.534871826171875 1.0230000000000001 5.463621826171875 1.0545 Q 5.392371826171875 1.086 5.303871826171875 1.086 Q 5.213871826171875 1.086 5.141121826171875 1.05375 Q 5.068371826171875 1.0215 5.018121826171875 0.9675 Q 4.967871826171875 0.9135000000000001 4.940121826171875 0.84225 Q 4.912371826171875 0.7710000000000001 4.912371826171875 0.6945000000000001 Q 4.912371826171875 0.6165 4.940121826171875 0.54525 Q 4.967871826171875 0.4740000000000001 5.018121826171875 0.42000000000000004 Q 5.068371826171875 0.366 5.141121826171875 0.33375 Q 5.213871826171875 0.3015 5.303871826171875 0.3015 Q 5.392371826171875 0.3015 5.463621826171875 0.33375 Q 5.534871826171875 0.366 5.585121826171875 0.42000000000000004 Q 5.635371826171875 0.4740000000000001 5.662371826171875 0.54525 Q 5.689371826171875 0.6165 5.689371826171875 0.6945000000000001 M 5.546871826171875 0.6945000000000001 Q 5.546871826171875 0.5895 5.524371826171875 0.52425 Q 5.501871826171875 0.4590000000000001 5.465871826171875 0.42300000000000004 Q 5.429871826171875 0.387 5.386371826171875 0.3742500000000001 Q 5.342871826171875 0.36150000000000004 5.302371826171875 0.36150000000000004 Q 5.261871826171875 0.36150000000000004 5.218371826171875 0.3742500000000001 Q 5.174871826171875 0.387 5.138121826171875 0.42300000000000004 Q 5.101371826171875 0.4590000000000001 5.078121826171875 0.52425 Q 5.054871826171875 0.5895 5.054871826171875 0.6945000000000001 Q 5.054871826171875 0.798 5.078121826171875 0.8632500000000001 Q 5.101371826171875 0.9285000000000001 5.138121826171875 0.9645 Q 5.174871826171875 1.0005000000000002 5.218371826171875 1.01325 Q 5.261871826171875 1.026 5.302371826171875 1.026 Q 5.342871826171875 1.026 5.386371826171875 1.01325 Q 5.429871826171875 1.0005000000000002 5.465871826171875 0.9645 Q 5.501871826171875 0.9285000000000001 5.524371826171875 0.8632500000000001 Q 5.546871826171875 0.798 5.546871826171875 0.6945000000000001" fill="#000000" fill-rule="nonzero"></path></g><g></g></g><defs><clipPath id="SvgjsClipPath3373"><path d=" M -2.6261765242098494 -0.5861278498457221 h 2.2261765242098495 v 2.2402556996914442 h -2.2261765242098495 Z"></path></clipPath><clipPath id="SvgjsClipPath3368e4477deb-1091-4389-a11b-92d7026c691d"><path d=" M -2.6261765242098494 -0.5861278498457221 L -0.3999999999999999 -0.5861278498457221 L -0.3999999999999999 1.6541278498457221 L -2.6261765242098494 1.6541278498457221 Z"></path></clipPath></defs></svg>